<?xml version="1.0" encoding="utf-8"?>
<!-- Generator: Adobe Illustrator 17.0.0, SVG Export Plug-In . SVG Version: 6.00 Build 0)  -->
<!DOCTYPE svg PUBLIC "-//W3C//DTD SVG 1.1//EN" "http://www.w3.org/Graphics/SVG/1.1/DTD/svg11.dtd">
<svg version="1.1" id="Layer_1" xmlns="http://www.w3.org/2000/svg" xmlns:xlink="http://www.w3.org/1999/xlink" x="0px" y="0px"
	 width="463.671px" height="315px" viewBox="0 0 463.671 315" enable-background="new 0 0 463.671 315" xml:space="preserve">
<g>
	<circle fill="#FCC28A" cx="243" cy="165" r="150"/>
	<circle fill="#FCC28A" cx="243" cy="165" r="150"/>
	<g>
		<defs>
			<circle id="SVGID_1_" cx="243" cy="165" r="150"/>
		</defs>
		<clipPath id="SVGID_2_">
			<use xlink:href="#SVGID_1_"  overflow="visible"/>
		</clipPath>
		<g clip-path="url(#SVGID_2_)">
			
				<rect x="34.444" y="29.517" transform="matrix(0.8592 -0.5116 0.5116 0.8592 -2.6601 95.3686)" fill="#FAAC73" width="275" height="46"/>
			
				<rect x="28.373" y="70.033" transform="matrix(0.8592 -0.5116 0.5116 0.8592 -14.3993 108.7423)" fill="#FBBC9A" width="324" height="21"/>
			
				<rect x="44.732" y="98.477" transform="matrix(0.8592 -0.5116 0.5116 0.8592 -23.0537 126.1819)" fill="#FBB47E" width="346" height="13"/>
			
				<rect x="46.507" y="93.926" transform="matrix(0.8592 -0.5116 0.5116 0.8592 -15.599 142.1694)" fill="#FBBA89" width="408" height="11"/>
			
				<rect x="75.008" y="144.494" transform="matrix(0.8592 -0.5116 0.5116 0.8592 -43.9591 150.2499)" fill="#FCBB84" width="352" height="21"/>
			
				<rect x="88.764" y="156.48" transform="matrix(0.8592 -0.5116 0.5116 0.8592 -51.1661 165.0331)" fill="#F9A163" width="371" height="38"/>
			
				<rect x="148.865" y="228.297" transform="matrix(0.8592 -0.5116 0.5116 0.8592 -79.3681 190.1871)" fill="#DA7E44" width="314" height="22"/>
			
				<rect x="166.139" y="243.066" transform="matrix(0.8592 -0.5116 0.5116 0.8592 -90.5104 205.2375)" fill="#F29E5F" width="323" height="48"/>
		</g>
	</g>
	<g opacity="0.4">
		<path fill="#C5752D" d="M332.868,44.892C357.765,71.669,373,107.553,373,147c0,82.843-67.157,150-150,150
			c-33.709,0-64.821-11.121-89.868-29.892C160.521,296.565,199.605,315,243,315c82.843,0,150-67.157,150-150
			C393,115.867,369.376,72.252,332.868,44.892z"/>
	</g>
	<path fill="#486E7B" d="M463.363,86.354c-3.825-14.171-42.659-17.19-99.623-10.323c2.395,3.245,4.671,6.582,6.803,10.02
		c28.325-1.346,46.48,1.874,48.71,10.138c5.037,18.662-73.006,55.958-174.315,83.303C143.63,206.837,57.42,213.875,52.383,195.213
		c-2.338-8.662,13.23-21.339,40.708-35.171c0.128-3.949,0.41-7.859,0.838-11.725c-54.715,23.239-88.234,46.04-84.327,60.515
		c6.476,23.994,113.305,16.028,238.607-17.794S469.839,110.349,463.363,86.354z"/>
</g>
</svg>
