<?xml version="1.0" encoding="utf-8"?>
<!-- Generator: Adobe Illustrator 17.0.0, SVG Export Plug-In . SVG Version: 6.00 Build 0)  -->
<!DOCTYPE svg PUBLIC "-//W3C//DTD SVG 1.1//EN" "http://www.w3.org/Graphics/SVG/1.1/DTD/svg11.dtd">
<svg version="1.1" id="Layer_1" xmlns="http://www.w3.org/2000/svg" xmlns:xlink="http://www.w3.org/1999/xlink" x="0px" y="0px"
	 width="989px" height="831.5px" viewBox="0 -155.5 989 831.5" enable-background="new 0 -155.5 989 831.5" xml:space="preserve">
<title>Planet</title>
<g>
	<g>
		<path fill="#ECEDEF" d="M797.618,486.82C735.305,621.67,587.385,700.35,437.27,668.078
			C287.154,635.803,183.662,503.07,180.963,354.245L797.618,486.82z M803.594,455.352c8.457-19.689,15.103-40.521,19.687-62.333
			C860.212,217.28,749.299,44.531,575.55,7.176C401.8-30.18,231.01,82.005,194.078,257.746c-4.558,21.687-6.864,43.328-7.078,64.676
			C270.136,352.147,376.17,382,492.867,407.09C608.353,431.918,716.175,448.188,803.594,455.352z"/>
	</g>
	<g transform="translate(466 528)">
		<ellipse fill="#CDCFD1" cx="39.744" cy="40.338" rx="39.719" ry="40.174"/>
		<path fill="#ACB0B5" d="M60.866,7.161C54.551,3.129,47.213,0.991,39.72,1C17.783,1,0,18.987,0,41.174
			c0,3.12,0.351,6.156,1.016,9.07C1.674,25.144,21.998,5,46.973,5C51.815,5,56.483,5.757,60.866,7.161z"/>
	</g>
	<g transform="translate(261 161)">
		<ellipse fill="#CDCFD2" cx="56.179" cy="59.057" rx="49.407" ry="48.013"/>
		<path fill="#ACB0B5" d="M13.774,82.677c-5.986-10.533-8.007-23.193-4.67-35.646c6.863-25.613,33.793-40.652,60.15-33.59
			c3.352,0.896,6.603,2.132,9.704,3.688c-28.389-5.323-56.56,12.169-64.2,40.676C12.508,66.207,12.279,74.671,13.774,82.677z"/>
	</g>
	<path fill="#CDCFD1" d="M624.536,153.563c14.981,0,27.125-12.284,27.125-27.437c0-15.152-12.144-27.436-27.125-27.436
		c-14.98,0-27.125,12.284-27.125,27.436C597.411,141.279,609.555,153.563,624.536,153.563z"/>
	<path fill="#ACB0B5" d="M636.339,101.447c-3.517-1.617-7.343-2.452-11.214-2.447C610.145,99,598,111.284,598,126.436
		c0,3.735,0.738,7.296,2.074,10.541c-0.049-0.751-0.074-1.504-0.074-2.257c0-18.466,14.8-33.436,33.057-33.436
		C634.165,101.284,635.26,101.339,636.339,101.447L636.339,101.447z"/>
	<path fill="#CDCFD1" d="M379,523c18.778,0,34-15.446,34-34c0-19.554-15.222-35-34-35s-34,15.446-34,35
		C345,507.554,360.222,523,379,523z"/>
	<path fill="#ACB0B5" d="M394.507,457.802c-4.784-2.506-10.106-3.811-15.507-3.802c-18.778,0-34,15.446-34,35
		c0,2.83,0.354,5.587,1.02,8.229C346.716,474.64,364.573,457,386.5,457C389.241,457,391.919,457.276,394.507,457.802z"/>
	<path fill="#CDCFD1" d="M713.388,362.308c9.63,0,17.438-7.897,17.438-17.638c0-9.74-7.807-17.637-17.438-17.637
		c-9.63,0-17.438,7.897-17.438,17.637C695.95,354.411,703.757,362.308,713.388,362.308z"/>
	<path fill="#ACB0B5" d="M722.73,329.71c-2.774-1.774-5.999-2.714-9.292-2.71c-9.63,0-17.438,7.897-17.438,17.638
		c0,2.092,0.36,4.1,1.022,5.963c-0.015-0.32-0.022-0.64-0.022-0.963C697,338.24,706.135,329,717.404,329
		C719.247,329,721.032,329.247,722.73,329.71z"/>
	<path fill="#CDCFD1" d="M371.259,368.539c6.42,0,11.625-5.265,11.625-11.759s-5.205-11.758-11.625-11.758
		s-11.625,5.264-11.625,11.758S364.838,368.539,371.259,368.539z"/>
	<path fill="#ACB0B5" d="M377.487,346.807c-1.85-1.183-4-1.81-6.195-1.807c-6.42,0-11.625,5.264-11.625,11.758
		c0,1.396,0.24,2.734,0.68,3.976c-0.009-0.213-0.014-0.427-0.014-0.642c0-7.599,6.09-13.759,13.603-13.759
		c1.228,0,2.419,0.165,3.55,0.474H377.487z"/>
	<path fill="#DDDFE0" d="M776.79,148.381c37.996,54.47,60.324,120.986,60.324,192.791c0,184.537-147.469,334.134-329.38,334.134
		c-27.32,0-53.864-3.374-79.248-9.734C636.715,624.347,792.55,457.034,792.55,256.904c0-37.534-5.482-73.913-15.762-108.523
		L776.79,148.381z"/>
	<path fill="#CDCFD2" d="M831.542,383.408c100.776,37.453,161.746,74.004,156.408,99.155c-9.787,46.115-238.779,36.44-511.467-21.61
		C203.795,402.904-9.33,318.463,0.458,272.35c5.564-26.213,81.952-34.4,196.933-25.922c-0.768,3.161-1.489,6.332-2.164,9.514
		c-4.711,22.218-7.038,44.389-7.152,66.244c83.77,29.656,190.493,59.422,307.92,84.441c116.534,24.83,225.336,41.09,313.542,48.24
		c8.814-20.085,15.722-41.37,20.453-63.68c0.55-2.593,1.067-5.186,1.552-7.778V383.408z"/>
	<g>
		<path fill="#CDCFD1" d="M788.972,244.658c4.402,0,7.971-3.73,7.971-8.33c0-4.599-3.569-8.328-7.971-8.328
			c-4.403,0-7.972,3.729-7.972,8.329C781,240.929,784.569,244.658,788.972,244.658L788.972,244.658z"/>
		<path fill="#ACB0B5" d="M793.22,229.28c-1.259-0.835-2.737-1.28-4.248-1.28c-4.403,0-7.972,3.729-7.972,8.329
			c0,0.988,0.165,1.936,0.467,2.816c-0.007-0.15-0.01-0.303-0.01-0.455c0-5.382,4.176-9.746,9.328-9.746
			C791.627,228.944,792.443,229.061,793.22,229.28L793.22,229.28z"/>
	</g>
</g>
<g>
	<path fill="#757A81" d="M574.098,44.098c19.605,2.833,29.626,7.785,19.289,16.051c-19.568,15.649-129.464,4.206-197.092,4.206
		c-6.599-11.442,56.75-23.627,110.008-23.627c18.763,0,37.541,0.468,53.141,1.758l3.284-3.095c2.642-2.491,6.996-2.574,9.72-0.187
		l-0.442-0.388c1.604,1.405,2.307,3.375,2.093,5.281H574.098z"/>
	<path fill="none" stroke="#ACB0B5" stroke-width="9" stroke-linecap="round" d="M475.792,40.727
		c29.162-9.856,44.989-19.553,47.931-52.608"/>
	<path fill="#CDCFD2" d="M434.873,46.718c2.63,8.652,0.001,22.066,0.001,22.066H403.31c-17.442,0-9.504-13.885,15.198-25.661v-9.414
		c0-4.517,3.673-8.18,8.183-8.18c4.52,0,8.183,3.672,8.183,8.18v12.867L434.873,46.718z"/>
	<path fill="#ACB0B5" d="M505.019,46.718c-2.63,8.652-0.001,22.066-0.001,22.066h31.565c17.442,0,9.504-13.885-15.198-25.661v-9.414
		c0-4.517-3.673-8.18-8.183-8.18c-4.52,0-8.183,3.672-8.183,8.18v12.867L505.019,46.718z"/>
	<path fill="#F4F5F5" d="M467.608-84.363c-6.44,0.367-13.395,1.505-19.579,3.194v-24.733c0-2.934-2.004-3.79-4.472-1.415
		c0.091-0.213-21.611,16.195-21.611,40.987c0,3.173,0.138,82.684,0,113.773c-10.367,5.07-29.691,21.199-10.433,21.199H525.53
		c19.258,0-0.065-16.128-10.433-21.2c-0.138-31.088,0-110.738,0-113.772c0-24.83-21.718-41.376-21.718-41.376
		c-2.373-2.171-4.365-1.321-4.365,1.797v25.121C482.743-82.841,475.664-83.996,467.608-84.363z"/>
	<path fill="#DDDFE0" d="M455.918,12.669h29.226v56.115h-29.226V12.669z"/>
	<defs>
		<filter id="Adobe_OpacityMaskFilter" filterUnits="userSpaceOnUse" x="423.353" y="63.108" width="93.187" height="6.676">
			<feColorMatrix  type="matrix" values="1 0 0 0 0  0 1 0 0 0  0 0 1 0 0  0 0 0 1 0"/>
		</filter>
	</defs>
	<mask maskUnits="userSpaceOnUse" x="423.353" y="63.108" width="93.187" height="6.676" id="e_1_">
		<g filter="url(#Adobe_OpacityMaskFilter)">
			<path id="a_2_" fill="#FFFFFF" d="M382.267-156.844L382.267-156.844c0.646,0,1.169,0.523,1.169,1.169v2.338
				c0,0.646-0.523,1.169-1.169,1.169l0,0c-0.646,0-1.169-0.523-1.169-1.169v-2.338C381.098-156.321,381.621-156.844,382.267-156.844
				z"/>
		</g>
		<g>
			<path id="b_2_" fill="#FFFFFF" d="M464.101-156.844L464.101-156.844c0.646,0,1.169,0.523,1.169,1.169v2.338
				c0,0.646-0.523,1.169-1.169,1.169l0,0c-0.646,0-1.169-0.523-1.169-1.169v-2.338C462.932-156.321,463.455-156.844,464.101-156.844
				z"/>
		</g>
		<g>
			<path id="c_2_" fill="#FFFFFF" d="M471.115-156.844L471.115-156.844c0.646,0,1.169,0.523,1.169,1.169v2.338
				c0,0.646-0.523,1.169-1.169,1.169l0,0c-0.646,0-1.169-0.523-1.169-1.169v-2.338C469.946-156.321,470.47-156.844,471.115-156.844z
				"/>
		</g>
		<g>
			<path id="d_2_" fill="#FFFFFF" d="M389.281-156.844L389.281-156.844c0.646,0,1.169,0.523,1.169,1.169v2.338
				c0,0.646-0.523,1.169-1.169,1.169l0,0c-0.646,0-1.169-0.523-1.169-1.169v-2.338C388.112-156.321,388.636-156.844,389.281-156.844
				z"/>
		</g>
	</mask>
	<g transform="translate(37 189)" mask="url(#e_1_)">
		<g>
			<path id="a_1_" fill="#CECFD1" stroke="#CECFD1" stroke-width="2" d="M388.522-124.892L388.522-124.892
				c0.646,0,1.169,0.523,1.169,1.169v2.338c0,0.646-0.523,1.169-1.169,1.169l0,0c-0.646,0-1.169-0.523-1.169-1.169v-2.338
				C387.353-124.369,387.876-124.892,388.522-124.892z"/>
		</g>
		<g>
			<path id="b_1_" fill="#ADB0B5" stroke="#ADB0B5" stroke-width="2" d="M470.356-124.892L470.356-124.892
				c0.646,0,1.169,0.523,1.169,1.169v2.338c0,0.646-0.523,1.169-1.169,1.169l0,0c-0.646,0-1.169-0.523-1.169-1.169v-2.338
				C469.187-124.369,469.711-124.892,470.356-124.892z"/>
		</g>
		<g>
			<path id="c_1_" fill="#ADB0B5" stroke="#ADB0B5" stroke-width="2" d="M477.371-124.892L477.371-124.892
				c0.646,0,1.169,0.523,1.169,1.169v2.338c0,0.646-0.523,1.169-1.169,1.169l0,0c-0.646,0-1.169-0.523-1.169-1.169v-2.338
				C476.201-124.369,476.725-124.892,477.371-124.892z"/>
		</g>
		<g>
			<path id="d_1_" fill="#CECFD1" stroke="#CECFD1" stroke-width="2" d="M395.536-124.892L395.536-124.892
				c0.646,0,1.169,0.523,1.169,1.169v2.338c0,0.646-0.523,1.169-1.169,1.169l0,0c-0.646,0-1.169-0.523-1.169-1.169v-2.338
				C394.367-124.369,394.891-124.892,395.536-124.892z"/>
		</g>
	</g>
	<g>
		<path fill="#757A81" d="M494.879-79.807v-12.729c0-3.5,2.15-4.476,4.601-1.994c0,0,8.066,5.346,8.066,17.516
			c0,0.435-0.007,0.866-0.021,1.295C503.503-78.174,499.155-79.596,494.879-79.807z M443.25-80.177v-12.726
			c0-3.5-2.149-4.476-4.6-1.994c0,0-8.069,5.346-8.069,17.516c0,0.435,0.008,0.866,0.023,1.295
			c4.022-2.455,8.368-3.877,12.646-4.088V-80.177z"/>
	</g>
	<g transform="translate(35 119)">
		<path fill="#199CC2" d="M480.54-136.726v15.198c-24.46,0-35.012,30.396-46.762,30.396s-22.302-30.396-46.762-30.396v-15.198
			H480.54z"/>
		<path fill="#3C6A88" d="M480.54-136.726v9.352h-93.525v-9.352H480.54z"/>
		<circle fill="#F0CC36" cx="434.946" cy="-127.374" r="8.183"/>
	</g>
	<g transform="translate(3 3.716)">
		
			<ellipse fill="#D8D8D8" fill-opacity="0.42" stroke="#FFFFFF" stroke-width="6" stroke-opacity="0.8" cx="466.628" cy="-75.466" rx="85.023" ry="80.75"/>
		<path fill="none" stroke="#EDEEEF" stroke-width="2" stroke-linecap="round" d="M446.385-140.476
			c-16.56,3.035-30.746,12.276-39.69,25.034 M402.417-108.273c-1.613,3.223-5.196,15.822-5.507,18.78"/>
	</g>
	<g>
		<g transform="translate(62 91)">
			<path fill="#CDCFD2" d="M400.932-134.446h-2.338c-3.702,0-7.014,3.221-7.014,7.014c0,4.145,3.32,7.374,7.014,7.014h2.338
				c1.335,2.814,4.266,4.676,8.183,4.676c3.042,0,5.954-1.834,7.014-4.676h1.169c3.702,0.36,7.014-2.861,7.014-7.014
				c0-3.785-3.32-7.014-7.014-7.014h-2.338c-3.702,0-7.014,3.221-7.014,7.014C407.946-131.217,404.626-134.446,400.932-134.446z"/>
			<path fill="#F54F4B" d="M407.946-129.769L407.946-129.769c2.583,0,4.676,2.094,4.676,4.676v3.507
				c0,2.583-2.094,4.676-4.676,4.676l0,0c-2.583,0-4.676-2.094-4.676-4.676v-3.507C403.27-127.676,405.364-129.769,407.946-129.769z
				"/>
			<path fill="#4F5256" d="M400.285-135.256c-0.934-3.427,1.19-6.204,4.746-6.204h5.83c3.554,0,5.68,2.774,4.745,6.204l-0.124,0.451
				c-0.934,3.426-4.582,6.204-8.118,6.204h1.162c-3.549,0-7.183-2.774-8.118-6.204C400.409-134.804,400.285-135.256,400.285-135.256
				z"/>
		</g>
		<g transform="translate(50 72)">
			<ellipse fill="#2D2F31" cx="398.707" cy="-131.766" rx="4.098" ry="3.886"/>
			<path fill="none" stroke="#979797" stroke-width="1.2" stroke-linecap="round" d="M389.933-139.971l9.691-4.098"/>
		</g>
		<path fill="#2D2F31" d="M495.544-56.684c0.342-0.576,0.523-1.233,0.523-1.903c0-2.151-1.835-3.895-4.101-3.895
			c-2.264,0-4.101,1.744-4.101,3.895c0,0.691,0.191,1.341,0.523,1.903c1.13-0.65,2.496-1.049,3.578-1.049
			S494.414-57.335,495.544-56.684L495.544-56.684z"/>
		<path fill="none" stroke="#979797" stroke-width="1.2" stroke-linecap="round" d="M489.034-68.328l11.46,2.314"/>
	</g>
</g>
</svg>
