<?xml version="1.0" encoding="utf-8"?>
<!-- Generator: Adobe Illustrator 17.0.0, SVG Export Plug-In . SVG Version: 6.00 Build 0)  -->
<!DOCTYPE svg PUBLIC "-//W3C//DTD SVG 1.1//EN" "http://www.w3.org/Graphics/SVG/1.1/DTD/svg11.dtd">
<svg version="1.1" id="Layer_1" xmlns="http://www.w3.org/2000/svg" xmlns:xlink="http://www.w3.org/1999/xlink" x="0px" y="0px"
	 width="319.395px" height="480.866px" viewBox="361.255 35.448 319.395 480.866"
	 enable-background="new 361.255 35.448 319.395 480.866" xml:space="preserve">
<g>
	<path fill="#FFFFFF" d="M520.003,94.349c-4.385,0-7.935-3.55-7.935-7.935V56.426c0-4.385,3.55-7.935,7.935-7.935
		c4.385,0,7.935,3.55,7.935,7.935v29.988C527.938,90.798,524.388,94.349,520.003,94.349z"/>
</g>
<g>
	<circle fill="#FFFFFF" cx="519.813" cy="51.369" r="15.921"/>
</g>
<g>
	<path fill="#FFFFFF" d="M595.032,516.314H444.594c-4.385,0-7.935-3.55-7.935-7.935c0-45.853,37.307-83.154,83.16-83.154
		c45.853,0,83.154,37.302,83.154,83.154C602.967,512.764,599.417,516.314,595.032,516.314z M452.999,500.444h133.633
		c-3.942-33.37-32.402-59.349-66.819-59.349S456.942,467.074,452.999,500.444z"/>
</g>
<g>
	<path fill="#FFFFFF" d="M462.883,464.66c-0.258,0-0.521-0.011-0.784-0.039c-4.362-0.426-7.554-4.312-7.123-8.669l25.166-256.995
		c0.426-4.362,4.312-7.582,8.674-7.123c4.362,0.426,7.554,4.312,7.123,8.669l-25.166,256.995
		C470.37,461.597,466.915,464.66,462.883,464.66z"/>
</g>
<g>
	<path fill="#FFFFFF" d="M579.038,464.66c-4.038,0-7.487-3.063-7.885-7.162l-25.166-256.995c-0.431-4.357,2.761-8.243,7.123-8.669
		c4.318-0.414,8.243,2.755,8.669,7.123l25.166,256.995c0.431,4.357-2.761,8.243-7.123,8.669
		C579.559,464.649,579.302,464.66,579.038,464.66z"/>
</g>
<g>
	<path fill="#FFFFFF" d="M519.818,216.922c-37.038,0-67.178-30.128-67.178-67.166c0-37.033,30.134-67.161,67.178-67.161
		s67.166,30.128,67.166,67.161C586.985,186.794,556.857,216.922,519.818,216.922z M519.818,98.465
		c-28.286,0-51.302,23.01-51.302,51.29c0,28.286,23.01,51.296,51.302,51.296c28.286,0,51.296-23.01,51.296-51.296
		C571.114,121.475,548.098,98.465,519.818,98.465z"/>
</g>
<g>
	<path fill="#FFFFFF" d="M579.05,157.69H460.576c-4.385,0-7.935-3.55-7.935-7.935s3.556-7.935,7.935-7.935h118.468
		c4.385,0,7.935,3.55,7.935,7.935S583.434,157.69,579.05,157.69z"/>
</g>
<g>
	<path fill="#FFFFFF" d="M413.06,384.877c-0.941,0-1.898-0.168-2.834-0.526c-4.094-1.568-6.143-6.16-4.575-10.248
		c21.202-55.446,67.833-56.09,69.804-56.09c4.385,0,7.935,3.55,7.935,7.935c0,4.368-3.534,7.913-7.896,7.935
		c-1.618,0.022-37.862,1.014-55.02,45.881C419.265,382.934,416.258,384.877,413.06,384.877z"/>
</g>
<g>
	<path fill="#FFFFFF" d="M417.557,428.355c-1.674,0-3.371-0.526-4.805-1.624c-3.489-2.654-4.161-7.633-1.506-11.122
		c22.126-29.03,49.381-26.068,60.687-20.457c3.926,1.954,5.527,6.714,3.578,10.634c-1.938,3.909-6.67,5.522-10.578,3.612
		c-1.03-0.476-21.65-9.66-41.065,15.837C422.311,427.28,419.948,428.355,417.557,428.355z"/>
</g>
<g>
	<g>
		<path fill="#FFFFFF" d="M413.066,459.939h-31.494c-4.385,0-7.935-3.55-7.935-7.935v-98.403c0-13.059,10.623-23.682,23.682-23.682
			s23.682,10.618,23.682,23.682v98.403C421.001,456.389,417.445,459.939,413.066,459.939z M389.512,444.069h15.618v-90.468
			c0-4.306-3.5-7.812-7.812-7.812c-4.306,0-7.806,3.506-7.806,7.812V444.069z"/>
	</g>
</g>
<g>
	<path fill="#FFFFFF" d="M423.185,500.702h-53.99c-2.514,0-4.878-1.187-6.378-3.209c-1.495-2.016-1.949-4.626-1.221-7.034
		l12.37-40.762c1.277-4.189,5.718-6.541,9.901-5.286c4.194,1.277,6.563,5.712,5.292,9.906l-9.268,30.52h33.135l-7.666-30.918
		c-1.053-4.256,1.534-8.557,5.79-9.621c4.278-1.047,8.562,1.54,9.615,5.79l10.125,40.762c0.588,2.374,0.056,4.878-1.45,6.804
		C427.934,499.582,425.626,500.702,423.185,500.702z"/>
</g>
<g>
	<path fill="#FFFFFF" d="M628.85,384.877c-3.192,0-6.205-1.943-7.414-5.107c-17.175-44.923-53.48-45.858-55.014-45.881
		c-4.368-0.05-7.896-3.618-7.868-7.986c0.028-4.362,3.55-7.885,7.913-7.885l0,0c1.977,0,48.597,0.638,69.804,56.09
		c1.562,4.088-0.487,8.68-4.581,10.248C630.754,384.703,629.797,384.877,628.85,384.877z"/>
</g>
<g>
	<path fill="#FFFFFF" d="M624.359,428.355c-2.391,0-4.76-1.075-6.322-3.13c-19.774-25.962-40.785-15.96-40.998-15.859
		c-3.926,1.949-8.686,0.347-10.634-3.584c-1.949-3.92-0.347-8.686,3.584-10.634c11.318-5.622,38.573-8.574,60.687,20.462
		c2.654,3.483,1.982,8.467-1.512,11.122C627.725,427.829,626.034,428.355,624.359,428.355z"/>
</g>
<g>
	<g>
		<path fill="#FFFFFF" d="M660.339,459.939H628.85c-4.385,0-7.935-3.55-7.935-7.935v-98.403c0-13.059,10.618-23.682,23.682-23.682
			s23.682,10.618,23.682,23.682v98.403C668.274,456.389,664.73,459.939,660.339,459.939z M636.786,444.069h15.618v-90.468
			c0-4.306-3.506-7.812-7.812-7.812s-7.812,3.506-7.812,7.812v90.468H636.786z"/>
	</g>
</g>
<g>
	<path fill="#FFFFFF" d="M672.71,500.702h-53.978c-2.442,0-4.749-1.12-6.25-3.046c-1.501-1.926-2.038-4.43-1.456-6.804
		l10.119-40.762c1.053-4.25,5.37-6.832,9.621-5.79c4.256,1.053,6.849,5.365,5.79,9.621l-7.672,30.918h33.124l-9.262-30.526
		c-1.277-4.194,1.098-8.624,5.292-9.901c4.172-1.26,8.624,1.092,9.901,5.292l12.37,40.762c0.728,2.402,0.28,5.012-1.221,7.034
		C677.587,499.514,675.23,500.702,672.71,500.702z"/>
</g>
<g>
	<g>
		<path fill="#FFFFFF" d="M519.818,418.639c-10.578,0-19.186-8.602-19.186-19.18v-161.98c0-10.584,8.607-19.186,19.186-19.186
			c10.584,0,19.186,8.602,19.186,19.186v161.98C538.998,410.038,530.397,418.639,519.818,418.639z M519.818,234.164
			c-1.826,0-3.31,1.49-3.31,3.315v161.98c0,1.82,1.484,3.31,3.31,3.31c1.826,0,3.315-1.49,3.315-3.31v-161.98
			C523.128,235.654,521.644,234.164,519.818,234.164z"/>
	</g>
</g>
<g>
	<path fill="#FFFFFF" d="M528.907,266.935h-17.998c-4.385,0-7.935-3.55-7.935-7.935c0-4.385,3.556-7.935,7.935-7.935h17.998
		c4.385,0,7.935,3.55,7.935,7.935C536.842,263.385,533.292,266.935,528.907,266.935z"/>
</g>
<g>
	<path fill="#FFFFFF" d="M528.907,297.226h-17.998c-4.385,0-7.935-3.55-7.935-7.935c0-4.385,3.556-7.935,7.935-7.935h17.998
		c4.385,0,7.935,3.55,7.935,7.935C536.842,293.675,533.292,297.226,528.907,297.226z"/>
</g>
<g>
	<path fill="#FFFFFF" d="M528.907,327.51h-17.998c-4.385,0-7.935-3.55-7.935-7.935c0-4.385,3.556-7.935,7.935-7.935h17.998
		c4.385,0,7.935,3.55,7.935,7.935C536.842,323.96,533.292,327.51,528.907,327.51z"/>
</g>
<g>
	<path fill="#FFFFFF" d="M528.907,357.801h-17.998c-4.385,0-7.935-3.55-7.935-7.935s3.556-7.935,7.935-7.935h17.998
		c4.385,0,7.935,3.55,7.935,7.935S533.292,357.801,528.907,357.801z"/>
</g>
<g>
	<path fill="#FFFFFF" d="M528.907,388.091h-17.998c-4.385,0-7.935-3.55-7.935-7.935s3.556-7.935,7.935-7.935h17.998
		c4.385,0,7.935,3.55,7.935,7.935S533.292,388.091,528.907,388.091z"/>
</g>
</svg>
