<?xml version="1.0" encoding="utf-8"?>
<!-- Generator: Adobe Illustrator 17.0.0, SVG Export Plug-In . SVG Version: 6.00 Build 0)  -->
<!DOCTYPE svg PUBLIC "-//W3C//DTD SVG 1.1//EN" "http://www.w3.org/Graphics/SVG/1.1/DTD/svg11.dtd">
<svg version="1.1" id="Layer_1" xmlns="http://www.w3.org/2000/svg" xmlns:xlink="http://www.w3.org/1999/xlink" x="0px" y="0px"
	 width="463.671px" height="315px" viewBox="0 0 463.671 315" enable-background="new 0 0 463.671 315" xml:space="preserve">
<g>
	<ellipse fill="#FED4A4" cx="231.5" cy="279.034" rx="129.5" ry="24.033"/>
	<path fill="#979797" d="M361,280c0,0-62.004,10-129.002,10S102,280,102,280L81,180h300L361,280z"/>
	<path fill="#B92F26" d="M455.99,164.54c-0.03,2.4-0.29,4.77-0.76,7.12C445.71,218.89,348.95,256,231,256S16.29,218.89,6.78,171.66
		c-0.48-2.35-0.74-4.72-0.77-7.12C6.7,120.57,107.17,85,231,85S455.3,120.57,455.99,164.54z"/>
	<path fill="#F05141" d="M456,165c0,2.24-0.26,4.47-0.77,6.66C445.71,212.73,348.95,245,231,245S16.29,212.73,6.78,171.66
		C6.26,169.47,6,167.24,6,165c0-0.15,0-0.31,0.01-0.46C6.7,120.57,107.17,85,231,85s224.3,35.57,224.99,79.54
		C456,164.69,456,164.85,456,165z"/>
	<path fill="#65ADC6" d="M231,204c58.676,0,111.751-13.115,149.997-34.276C380.847,87.009,313.75,20,231,20
		S81.153,87.009,81.003,169.724C119.249,190.885,172.324,204,231,204z"/>
	<g>
		<defs>
			<path id="SVGID_1_" d="M231,204c58.676,0,111.751-13.115,149.997-34.276C380.847,87.009,313.75,20,231,20
				S81.153,87.009,81.003,169.724C119.249,190.885,172.324,204,231,204z"/>
		</defs>
		<clipPath id="SVGID_2_">
			<use xlink:href="#SVGID_1_"  overflow="visible"/>
		</clipPath>
		<path clip-path="url(#SVGID_2_)" fill="#368EA9" d="M251,40c-16.414,0-32.208,2.645-46.99,7.518C213.702,54.613,220,66.069,220,79
			c0,21.539-17.461,39-39,39c-19.064,0-34.922-13.682-38.318-31.759c-25.756,26.882-41.606,63.331-41.678,103.483
			C139.249,210.885,192.324,224,251,224s111.751-13.115,149.997-34.276C400.847,107.009,333.75,40,251,40z"/>
	</g>
	
		<ellipse transform="matrix(0.9848 0.1736 -0.1736 0.9848 39.1174 -19.2984)" fill="#FFEAD2" cx="129.85" cy="213.908" rx="20.543" ry="12.937"/>
	
		<ellipse transform="matrix(0.9848 -0.1736 0.1736 0.9848 -32.0728 61.2221)" fill="#FFEAD2" cx="333.85" cy="213.908" rx="20.543" ry="12.937"/>
	<ellipse fill="#FFEAD2" cx="231.85" cy="221.908" rx="20.543" ry="12.937"/>
</g>
</svg>
