<?xml version="1.0" encoding="utf-8"?>
<!-- Generator: Adobe Illustrator 17.0.0, SVG Export Plug-In . SVG Version: 6.00 Build 0)  -->
<!DOCTYPE svg PUBLIC "-//W3C//DTD SVG 1.1//EN" "http://www.w3.org/Graphics/SVG/1.1/DTD/svg11.dtd">
<svg version="1.1" id="Layer_1" xmlns="http://www.w3.org/2000/svg" xmlns:xlink="http://www.w3.org/1999/xlink" x="0px" y="0px"
	 width="194px" height="194px" viewBox="53.5 53.5 194 194" enable-background="new 53.5 53.5 194 194" xml:space="preserve">
<g>
	<rect x="90.112" y="102.133" fill="#6E675D" width="87.047" height="27.371"/>
	<g>
		<path fill="#B3A68D" d="M215.079,121.817c-0.055,0-0.11-0.003-0.166-0.008l-61.101-6.057c-0.864-0.086-1.52-0.814-1.516-1.681
			l0.129-34.047c0.002-0.477,0.206-0.931,0.562-1.248c0.31-0.277,0.709-0.427,1.121-0.427c0.061,0,0.122,0.003,0.184,0.01
			l42.843,4.711c0.562,0.062,1.055,0.402,1.313,0.906l18.129,35.394c0.281,0.548,0.24,1.205-0.106,1.715
			C216.155,121.544,215.632,121.817,215.079,121.817z"/>
		<path fill="#3C3E3C" d="M154.106,80.029l42.844,4.711l18.129,35.394l-61.101-6.057L154.106,80.029 M154.106,76.664
			c-0.822,0-1.621,0.302-2.241,0.855c-0.712,0.635-1.121,1.543-1.124,2.498l-0.129,34.047c-0.007,1.735,1.307,3.19,3.033,3.362
			l61.101,6.057c0.111,0.011,0.222,0.016,0.332,0.016c1.106,0,2.15-0.545,2.78-1.471c0.693-1.018,0.775-2.333,0.214-3.429
			l-18.129-35.394c-0.516-1.007-1.503-1.687-2.628-1.811l-42.844-4.711C154.351,76.671,154.229,76.664,154.106,76.664
			L154.106,76.664z"/>
	</g>
	<path opacity="0.2" fill="#3C3E3C" enable-background="new    " d="M160.891,108.145l-4.417-30.412l-4.511-1.59
		c-0.123-0.006-0.246-0.005-0.369,0.003c-0.82,0.051-1.599,0.402-2.183,0.993c-0.671,0.678-1.022,1.611-0.966,2.563l1.996,33.989
		c0.001,0.022,0.008,0.041,0.009,0.063l7.902-1.947C160.002,111.401,161.09,109.83,160.891,108.145z"/>
	<g>
		<path fill="#B3A68D" d="M84.05,121.817c-0.499,0-0.977-0.221-1.3-0.614c-0.388-0.472-0.489-1.116-0.266-1.684l13.804-35.105
			c0.199-0.505,0.63-0.884,1.157-1.016l54.826-13.744c0.135-0.034,0.273-0.05,0.409-0.05c0.355,0,0.706,0.113,0.998,0.328
			c0.404,0.297,0.654,0.761,0.682,1.263l1.982,36.061c0.046,0.847-0.545,1.596-1.38,1.748L84.349,121.79
			C84.249,121.808,84.149,121.817,84.05,121.817z"/>
		<path fill="#3C3E3C" d="M152.68,71.285l1.982,36.062L84.05,120.135l13.804-35.105L152.68,71.285 M152.68,67.919
			c-0.273,0-0.548,0.033-0.818,0.101L97.035,81.764c-1.054,0.265-1.916,1.022-2.313,2.033l-13.804,35.105
			c-0.447,1.136-0.243,2.424,0.532,3.367c0.645,0.786,1.604,1.229,2.6,1.229c0.199,0,0.4-0.018,0.6-0.054l70.613-12.788
			c1.67-0.302,2.854-1.801,2.76-3.496l-1.982-36.062c-0.055-1.003-0.555-1.928-1.364-2.525
			C154.092,68.145,153.392,67.919,152.68,67.919L152.68,67.919z"/>
	</g>
	<g>
		<path fill="#B3A68D" d="M83.498,227.992c-0.929,0-1.683-0.753-1.683-1.683V122.143c0-0.929,0.753-1.683,1.683-1.683h131.791
			c0.929,0,1.683,0.753,1.683,1.683V226.31c0,0.929-0.753,1.683-1.683,1.683H83.498z"/>
		<path fill="#3C3E3C" d="M215.288,122.144V226.31H83.498V122.144H215.288 M215.288,118.778H83.498
			c-1.858,0-3.365,1.507-3.365,3.365V226.31c0,1.858,1.507,3.365,3.365,3.365h131.791c1.858,0,3.365-1.507,3.365-3.365V122.144
			C218.654,120.285,217.147,118.778,215.288,118.778L215.288,118.778z"/>
	</g>
	<g>
		<path fill="none" d="M218.074,118.6l-18.129-35.394c-0.516-1.007-1.503-1.687-2.628-1.811l-37.686-4.144l1.755,31.929
			c0.093,1.695-1.09,3.194-2.76,3.496l-8.009,1.45c0.026,1.706,1.323,3.13,3.027,3.299l61.101,6.057
			c0.111,0.011,0.222,0.016,0.332,0.016c1.106,0,2.15-0.545,2.78-1.471C218.553,121.012,218.635,119.696,218.074,118.6z"/>
	</g>
	<g>
		<path fill="#404041" d="M120.832,186.048c0.211-0.045,0.409-0.007,0.596,0.112c0.186,0.12,0.302,0.286,0.347,0.497l0.654,3.046
			c0.045,0.211,0.008,0.409-0.112,0.596s-0.286,0.302-0.497,0.347l-15.399,3.308c-0.211,0.045-0.409,0.008-0.595-0.112
			c-0.186-0.12-0.302-0.285-0.347-0.497l-0.623-2.902c-0.058-0.268-0.055-0.489,0.008-0.663c0.063-0.174,0.131-0.318,0.207-0.435
			l6.866-12.806l-8.561,1.839c-0.211,0.045-0.409,0.008-0.595-0.112c-0.186-0.12-0.302-0.285-0.347-0.497l-0.654-3.046
			c-0.045-0.211-0.008-0.409,0.112-0.596c0.12-0.186,0.285-0.302,0.496-0.347l14.825-3.185c0.211-0.045,0.409-0.007,0.595,0.112
			c0.186,0.12,0.302,0.286,0.347,0.497l0.623,2.902c0.078,0.364,0.022,0.707-0.17,1.028l-6.854,12.863L120.832,186.048z"/>
		<path fill="#FFDE46" d="M166.188,160.075c1.264-0.271,2.423-0.38,3.476-0.326c1.053,0.055,1.988,0.275,2.802,0.66
			c0.814,0.386,1.498,0.956,2.05,1.709c0.553,0.752,0.948,1.685,1.187,2.796c0.309,1.437,0.268,2.693-0.122,3.768
			c-0.39,1.076-1.078,1.98-2.062,2.712l5.031,6.072c0.082,0.102,0.134,0.202,0.154,0.297c0.037,0.172,0.007,0.335-0.091,0.485
			c-0.098,0.151-0.233,0.246-0.405,0.283l-3.907,0.839c-0.383,0.082-0.675,0.055-0.874-0.083c-0.2-0.137-0.366-0.282-0.499-0.434
			l-4.509-5.463l-2.643,0.568l1.321,6.148c0.045,0.211,0.007,0.409-0.112,0.596c-0.12,0.186-0.286,0.302-0.496,0.347l-3.764,0.808
			c-0.211,0.045-0.409,0.008-0.596-0.112c-0.186-0.12-0.302-0.285-0.347-0.497l-3.987-18.559c-0.045-0.211-0.008-0.409,0.112-0.596
			c0.12-0.186,0.285-0.302,0.497-0.347L166.188,160.075z M164.812,169.478l3.247-0.697c0.804-0.173,1.437-0.468,1.898-0.888
			c0.461-0.419,0.605-1.032,0.432-1.836c-0.173-0.804-0.556-1.303-1.148-1.496c-0.593-0.193-1.291-0.204-2.095-0.031l-3.247,0.697
			L164.812,169.478z"/>
		<path fill="#FFDE46" d="M192.356,154.454c0.211-0.045,0.409-0.007,0.595,0.112c0.186,0.12,0.302,0.286,0.347,0.497l2.463,11.463
			c0.284,1.322,0.324,2.535,0.121,3.641c-0.204,1.106-0.619,2.086-1.246,2.943c-0.628,0.856-1.44,1.577-2.436,2.162
			c-0.997,0.585-2.137,1.015-3.42,1.291c-1.303,0.28-2.528,0.357-3.677,0.234c-1.149-0.124-2.181-0.448-3.095-0.973
			c-0.914-0.525-1.691-1.249-2.33-2.175c-0.639-0.924-1.101-2.047-1.385-3.369l-2.463-11.463c-0.045-0.211-0.008-0.409,0.112-0.596
			c0.12-0.186,0.285-0.302,0.497-0.347l3.764-0.808c0.211-0.045,0.409-0.007,0.596,0.112c0.186,0.12,0.302,0.286,0.347,0.497
			l2.438,11.348c0.247,1.149,0.723,1.989,1.428,2.519c0.705,0.53,1.632,0.672,2.781,0.425c1.149-0.247,1.936-0.757,2.362-1.529
			c0.425-0.773,0.514-1.734,0.267-2.883l-2.438-11.348c-0.045-0.211-0.008-0.409,0.112-0.596c0.12-0.186,0.285-0.302,0.497-0.347
			L192.356,154.454z"/>
		<path fill="#404041" d="M134.021,179.561c0.027,0.165,0.053,0.326,0.076,0.476c0.11,0.979-0.055,1.845-0.493,2.601
			c-0.437,0.754-1.249,1.259-2.432,1.514c-1.185,0.253-2.136,0.127-2.854-0.379c-0.72-0.506-1.222-1.23-1.504-2.171
			c-0.112-0.337-0.026-1.197-0.026-1.197l0.293-1.415l-0.845-1.156c0,0-0.427-0.724-0.458-1.059
			c-0.065-0.487-0.059-0.949,0.018-1.386c0.076-0.437,0.231-0.836,0.464-1.197c0.233-0.361,0.551-0.674,0.955-0.942
			c0.402-0.266,0.899-0.462,1.489-0.59c0.59-0.126,1.124-0.151,1.6-0.073c0.477,0.077,0.896,0.234,1.257,0.466
			c0.361,0.234,0.665,0.533,0.915,0.901c0.249,0.367,0.444,0.787,0.586,1.257c0.022,0.077,0.045,0.166,0.068,0.248l5.405-0.84
			c-0.058-0.234-0.115-0.47-0.175-0.697c-0.288-1.06-0.74-2.02-1.355-2.88c-0.616-0.859-1.376-1.557-2.283-2.095
			c-0.907-0.536-1.951-0.893-3.13-1.071c-1.18-0.177-2.469-0.116-3.867,0.184c-0.003,0.001-0.005,0.001-0.007,0.001
			c-0.003,0-0.005,0.001-0.007,0.001c-1.417,0.304-2.623,0.779-3.616,1.423c-0.994,0.645-1.794,1.397-2.4,2.259
			c-0.606,0.862-1.014,1.811-1.222,2.848c-0.209,1.036-0.225,2.097-0.053,3.182c0.138,0.832,0.304,1.698,0.498,2.598
			c0.193,0.901,0.393,1.739,0.601,2.516c0.288,1.061,0.739,2.02,1.355,2.88c0.615,0.859,1.378,1.563,2.286,2.109
			c0.909,0.547,1.947,0.904,3.116,1.074c1.168,0.17,2.461,0.102,3.879-0.202c0.003-0.001,0.005-0.001,0.007-0.001
			s0.005-0.001,0.007-0.001c1.398-0.3,2.6-0.769,3.606-1.406c1.006-0.637,1.81-1.391,2.415-2.262
			c0.604-0.871,1.01-1.825,1.219-2.862c0.208-1.036,0.226-2.097,0.052-3.182c-0.028-0.168-0.059-0.343-0.09-0.516L134.021,179.561z"
			/>
		<path fill="#404041" d="M157.352,169.842c-0.288-1.06-0.74-2.02-1.355-2.88c-0.616-0.859-1.376-1.557-2.284-2.095
			c-0.001-0.001-0.003-0.001-0.003-0.002c-0.005-0.003-0.009-0.006-0.013-0.009c-0.909-0.547-1.947-0.904-3.116-1.074
			c-0.994-0.145-2.079-0.116-3.253,0.083c-0.032,0.005-0.065,0.009-0.097,0.015c-0.046,0.008-0.094,0.019-0.139,0.027
			c-0.125,0.023-0.248,0.046-0.375,0.073c-0.003,0.001-0.005,0.001-0.007,0.001c-0.003,0.001-0.005,0.001-0.007,0.001
			c-1.398,0.3-2.6,0.769-3.606,1.406c-1.006,0.637-1.81,1.391-2.415,2.262c-0.604,0.871-1.01,1.825-1.219,2.862
			c-0.208,1.036-0.226,2.097-0.053,3.182c0.04,0.243,0.084,0.493,0.13,0.745l0.018-0.004c0.001,0.007,0.003,0.014,0.004,0.022
			l5.341-0.83c-0.02-0.112-0.038-0.221-0.055-0.328l0.005-0.001c-0.012-0.073-0.023-0.143-0.034-0.213
			c-0.018-0.134-0.036-0.269-0.048-0.392c-0.035-0.265-0.048-0.521-0.041-0.771c0.025-0.582,0.161-1.117,0.406-1.609
			c0.038-0.069,0.075-0.137,0.117-0.203c0.233-0.361,0.551-0.674,0.955-0.942c0.402-0.266,0.899-0.462,1.489-0.59
			c0.055-0.011,0.106-0.019,0.16-0.029c0.094-0.017,0.188-0.037,0.279-0.049c0.006-0.001,0.011-0.001,0.018-0.002
			c0.417-0.055,0.804-0.055,1.158,0.003c0.472,0.077,0.888,0.231,1.246,0.46c0.717,0.506,1.216,1.228,1.498,2.167
			c0.112,0.337,0.026,1.197,0.026,1.197l-0.293,1.415l0.845,1.156c0,0,0.427,0.724,0.458,1.059c0.035,0.265,0.048,0.522,0.041,0.772
			c-0.025,0.581-0.161,1.117-0.406,1.609c-0.038,0.069-0.075,0.137-0.117,0.203c-0.233,0.361-0.551,0.674-0.955,0.942
			c-0.402,0.266-0.899,0.462-1.489,0.59c-0.055,0.011-0.106,0.019-0.16,0.029c-0.094,0.018-0.188,0.037-0.279,0.049
			c-0.006,0.001-0.011,0.001-0.018,0.002c-0.417,0.055-0.804,0.055-1.158-0.003c-0.472-0.077-0.888-0.231-1.246-0.46
			c-0.717-0.506-1.216-1.228-1.498-2.167c-0.026-0.076-0.05-0.161-0.074-0.242l-5.347,1.042c0.04,0.164,0.081,0.33,0.122,0.489
			c0.288,1.06,0.74,2.02,1.355,2.88c0.616,0.859,1.376,1.557,2.284,2.095c0.001,0.001,0.003,0.001,0.004,0.002
			c0.005,0.003,0.009,0.006,0.013,0.009c0.909,0.547,1.947,0.904,3.116,1.074c0.994,0.145,2.079,0.116,3.253-0.083
			c0.032-0.005,0.065-0.009,0.097-0.015c0.046-0.008,0.094-0.019,0.139-0.027c0.125-0.023,0.248-0.046,0.375-0.073
			c0.002-0.001,0.005-0.001,0.007-0.001c0.003-0.001,0.005-0.001,0.007-0.001c1.398-0.3,2.6-0.769,3.605-1.406
			c1.006-0.637,1.81-1.391,2.415-2.262c0.604-0.871,1.01-1.825,1.219-2.862c0.208-1.036,0.226-2.097,0.052-3.182
			c-0.131-0.794-0.292-1.64-0.486-2.54C157.772,171.515,157.567,170.657,157.352,169.842z"/>
	</g>
</g>
</svg>
