<?xml version="1.0" encoding="utf-8"?>
<!-- Generator: Adobe Illustrator 17.0.0, SVG Export Plug-In . SVG Version: 6.00 Build 0)  -->
<!DOCTYPE svg PUBLIC "-//W3C//DTD SVG 1.1//EN" "http://www.w3.org/Graphics/SVG/1.1/DTD/svg11.dtd">
<svg version="1.1" id="Layer_1" xmlns="http://www.w3.org/2000/svg" xmlns:xlink="http://www.w3.org/1999/xlink" x="0px" y="0px"
	 width="746px" height="194px" viewBox="0 0 746 194" enable-background="new 0 0 746 194" xml:space="preserve">
<g>
	<path fill="#FFFFFF" d="M139.336,141.062c1.651,0,3.079,0.603,4.284,1.804c1.201,1.205,1.801,2.633,1.801,4.284v23.895
		c0,1.656-0.6,3.083-1.801,4.284c-1.205,1.205-2.633,1.804-4.284,1.804H18.506c-1.656,0-3.081-0.598-4.282-1.804
		c-1.205-1.201-1.804-2.628-1.804-4.284v-22.768c0-2.104,0.372-3.755,1.127-4.959c0.751-1.203,1.499-2.178,2.254-2.931
		l72.136-84.989H20.76c-1.656,0-3.081-0.598-4.282-1.802c-1.205-1.201-1.804-2.628-1.804-4.284V25.418
		c0-1.654,0.598-3.079,1.804-4.284c1.201-1.201,2.626-1.804,4.282-1.804h116.322c1.651,0,3.079,0.603,4.282,1.804
		c1.203,1.205,1.804,2.631,1.804,4.284v22.768c0,2.857-0.979,5.337-2.931,7.439l-72.136,85.437H139.336z"/>
	<path fill="#FEDE47" d="M521.376,19.33c9.917,0,18.784,1.053,26.599,3.157c7.813,2.106,14.464,5.261,19.951,9.467
		c5.485,4.21,9.693,9.581,12.624,16.119c2.931,6.536,4.396,14.166,4.396,22.88c0,11.273-2.33,20.628-6.989,28.067
		c-4.658,7.439-11.271,13.115-19.837,17.02l27.952,53.653c0.45,0.901,0.677,1.73,0.677,2.478c0,1.353-0.488,2.519-1.465,3.495
		c-0.979,0.979-2.142,1.465-3.493,1.465h-30.659c-3.007,0-5.149-0.677-6.424-2.03c-1.279-1.351-2.294-2.704-3.045-4.058
		l-25.022-48.242h-20.74v48.242c0,1.656-0.603,3.083-1.804,4.284c-1.203,1.205-2.631,1.804-4.282,1.804h-29.532
		c-1.656,0-3.083-0.598-4.284-1.804c-1.203-1.201-1.802-2.628-1.802-4.284V25.418c0-1.654,0.598-3.079,1.802-4.284
		c1.201-1.201,2.628-1.804,4.284-1.804C460.283,19.33,521.376,19.33,521.376,19.33z M495.902,87.635h25.474
		c6.312,0,11.531-1.201,15.667-3.605c4.132-2.402,6.2-6.765,6.2-13.077s-2.068-10.668-6.2-13.074
		c-4.136-2.402-9.355-3.607-15.667-3.607h-25.474L495.902,87.635L495.902,87.635z"/>
	<path fill="#FEDE47" d="M726.7,19.33c1.651,0,3.076,0.603,4.282,1.804c1.201,1.205,1.804,2.631,1.804,4.284v89.945
		c0,10.37-1.656,19.539-4.959,27.502c-3.309,7.968-8.004,14.654-14.089,20.063c-6.088,5.411-13.341,9.507-21.755,12.288
		c-8.418,2.778-17.661,4.17-27.728,4.17c-10.222,0-19.539-1.391-27.952-4.17c-8.418-2.781-15.633-6.877-21.643-12.288
		c-6.012-5.409-10.672-12.095-13.975-20.063c-3.307-7.963-4.961-17.132-4.961-27.502V25.418c0-1.654,0.6-3.079,1.804-4.284
		c1.201-1.201,2.628-1.804,4.284-1.804h29.53c1.654,0,3.079,0.603,4.284,1.804c1.201,1.205,1.804,2.631,1.804,4.284v89.044
		c0,9.016,2.216,16.081,6.65,21.19c4.43,5.111,11.159,7.665,20.175,7.665s15.741-2.554,20.177-7.665
		c4.43-5.109,6.648-12.174,6.648-21.19V25.418c0-1.654,0.6-3.079,1.804-4.284c1.201-1.201,2.628-1.804,4.284-1.804
		C697.168,19.33,726.7,19.33,726.7,19.33z"/>
	<path fill="#FFFFFF" d="M248.716,113.655c-0.065,1.278-0.13,2.527-0.194,3.693c-0.753,7.517-3.381,13.751-7.889,18.71
		c-4.499,4.951-11.396,7.429-20.684,7.439c-9.29-0.01-16.224-2.489-20.796-7.439c-4.587-4.959-7.179-11.192-7.777-18.71
		c-0.302-2.704,1.732-9.016,1.732-9.016l4.475-10.146l-4.475-10.032c0,0-2.035-6.122-1.732-8.678c0.3-3.755,1.089-7.215,2.366-10.37
		c1.277-3.157,3.079-5.897,5.411-8.228c2.328-2.328,5.221-4.172,8.678-5.523c3.443-1.348,7.484-2.022,12.118-2.028
		c4.632,0.006,8.673,0.68,12.118,2.028c3.455,1.351,6.348,3.195,8.68,5.523c2.328,2.33,4.13,5.071,5.409,8.228
		c1.275,3.155,2.064,6.614,2.366,10.37c0.036,0.616,0.072,1.315,0.109,1.97l41.896,2.41c-0.058-1.845-0.104-3.713-0.188-5.507
		c-0.45-8.416-2.292-16.343-5.523-23.783c-3.233-7.439-7.815-13.899-13.751-19.389c-5.938-5.483-13.189-9.841-21.755-13.074
		c-8.566-3.229-18.338-4.847-29.306-4.847c-0.019,0-0.037,0.001-0.056,0.001s-0.036-0.001-0.055-0.001
		c-11.123,0-20.93,1.618-29.418,4.847c-8.492,3.233-15.707,7.591-21.64,13.074c-5.94,5.49-10.522,11.95-13.753,19.389
		c-3.233,7.439-5.071,15.367-5.521,23.783c-0.305,6.462-0.453,13.227-0.453,20.289c0,7.065,0.148,13.677,0.453,19.837
		c0.45,8.418,2.288,16.343,5.521,23.783c3.231,7.439,7.813,13.941,13.753,19.501c5.933,5.561,13.148,9.919,21.64,13.074
		c8.488,3.157,18.295,4.735,29.418,4.735c0.019,0,0.036-0.001,0.055-0.001s0.037,0.001,0.056,0.001
		c10.968,0,20.74-1.577,29.306-4.735c8.566-3.155,15.817-7.513,21.755-13.074c5.936-5.559,10.518-12.062,13.751-19.501
		c3.231-7.439,5.073-15.364,5.523-23.783c0.064-1.307,0.11-2.667,0.159-4.019L248.716,113.655z"/>
	<path fill="#FFFFFF" d="M439.366,78.349c-0.45-8.416-2.292-16.343-5.523-23.783c-3.233-7.439-7.815-13.899-13.751-19.389
		c-0.008-0.007-0.017-0.013-0.025-0.02c-0.031-0.029-0.057-0.062-0.089-0.092c-5.933-5.561-13.148-9.919-21.64-13.074
		c-7.221-2.686-15.407-4.217-24.536-4.618c-0.253-0.011-0.498-0.032-0.752-0.042c-0.358-0.013-0.73-0.011-1.091-0.02
		c-0.97-0.026-1.938-0.055-2.928-0.055c-0.018,0-0.036,0.001-0.055,0.001c-0.019,0-0.037-0.001-0.056-0.001
		c-10.968,0-20.74,1.577-29.306,4.735c-8.566,3.155-15.817,7.513-21.755,13.074c-5.936,5.559-10.518,12.062-13.751,19.501
		c-3.231,7.439-5.073,15.364-5.523,23.783c-0.092,1.886-0.165,3.828-0.229,5.798h0.143c-0.002,0.055-0.003,0.112-0.004,0.167
		l41.394,2.381c0.033-0.87,0.073-1.723,0.122-2.548h0.037c0.028-0.565,0.056-1.109,0.084-1.656c0.08-1.035,0.159-2.072,0.271-3.016
		c0.163-2.04,0.483-3.984,0.935-5.848c1.124-4.319,3.005-8.122,5.636-11.415c0.391-0.453,0.78-0.908,1.206-1.334
		c2.328-2.328,5.221-4.172,8.678-5.523c3.444-1.348,7.485-2.023,12.121-2.028c0.429,0.001,0.83,0.032,1.249,0.043
		c0.73,0.019,1.469,0.027,2.168,0.081c0.045,0.003,0.087,0.011,0.132,0.015c3.22,0.26,6.115,0.887,8.678,1.889
		c3.42,1.338,6.286,3.162,8.606,5.457c4.561,4.951,7.142,11.169,7.739,18.664c0.302,2.704-1.732,9.016-1.732,9.016l-4.475,10.146
		l4.475,10.032c0,0,2.035,6.122,1.732,8.678c-0.163,2.042-0.484,3.989-0.936,5.855c-1.125,4.317-3.004,8.117-5.634,11.409
		c-0.391,0.453-0.78,0.908-1.207,1.334c-2.328,2.328-5.221,4.172-8.678,5.523c-3.444,1.348-7.485,2.023-12.12,2.028
		c-0.43-0.001-0.83-0.032-1.249-0.043c-0.729-0.019-1.469-0.027-2.167-0.081c-0.046-0.003-0.087-0.011-0.132-0.015
		c-3.22-0.26-6.115-0.887-8.678-1.889c-3.42-1.338-6.285-3.162-8.605-5.457c-4.561-4.951-7.143-11.169-7.739-18.664
		c-0.068-0.612-0.113-1.287-0.166-1.938l-41.782-0.801c0.039,1.298,0.073,2.607,0.132,3.866c0.45,8.416,2.292,16.343,5.523,23.783
		c3.233,7.439,7.815,13.899,13.751,19.389c0.008,0.007,0.017,0.013,0.025,0.02c0.031,0.029,0.057,0.062,0.089,0.092
		c5.933,5.561,13.148,9.919,21.64,13.074c7.221,2.686,15.407,4.217,24.536,4.618c0.253,0.011,0.499,0.032,0.753,0.042
		c0.358,0.013,0.729,0.011,1.091,0.02c0.97,0.026,1.938,0.055,2.927,0.055c0.018,0,0.036-0.001,0.055-0.001
		c0.019,0,0.037,0.001,0.056,0.001c10.968,0,20.74-1.577,29.306-4.735c8.566-3.155,15.817-7.513,21.755-13.074
		c5.936-5.559,10.518-12.062,13.751-19.501c3.231-7.439,5.073-15.364,5.523-23.783c0.3-6.16,0.45-12.772,0.45-19.837
		C439.817,91.575,439.667,84.811,439.366,78.349z"/>
</g>
</svg>
